<svg width="140" height="140" fill="none" xmlns="http://www.w3.org/2000/svg"><path d="M134.277 137.841H5.723a3.676 3.676 0 01-3.677-3.676V19.49h135.908v114.675a3.676 3.676 0 01-3.677 3.676z" fill="#FAF7F7"/><path d="M137.954 19.49H2.046V5.836a3.677 3.677 0 013.677-3.677h128.554a3.677 3.677 0 013.677 3.677V19.49z" fill="#C5D3DD"/><path d="M137.954 19.49v114.676a3.675 3.675 0 01-3.677 3.674h-5.456a3.675 3.675 0 003.677-3.674V19.49h5.456z" fill="#EDE1DD"/><path d="M137.954 5.836V19.49h-5.456V5.836a3.677 3.677 0 00-3.677-3.677h5.456a3.677 3.677 0 013.677 3.677z" fill="#B6C4CF"/><path d="M70 97.28c17.307 0 31.337-14.03 31.337-31.338 0-17.307-14.03-31.337-31.337-31.337-17.307 0-31.337 14.03-31.337 31.337C38.663 83.25 52.693 97.28 70 97.28z" fill="#FF9A02"/><path d="M101.336 65.942c0 17.308-14.03 31.339-31.336 31.339-3.89 0-7.617-.71-11.054-2.008a31.52 31.52 0 005.478.477c17.306 0 31.336-14.03 31.336-31.339 0-13.416-8.43-24.863-20.282-29.328 14.695 2.591 25.858 15.421 25.858 30.859z" fill="#FF9A02"/><path d="M65.628 80.38a5.101 5.101 0 01-3.545-1.434l-8.496-8.21a5.101 5.101 0 017.091-7.337l4.743 4.584 13.698-14.837a5.101 5.101 0 117.496 6.921L69.376 78.74a5.102 5.102 0 01-3.748 1.64z" fill="#FAF7F7"/><path d="M137.954 33.625c1.13 0 2.046-.916 2.046-2.046V5.836a5.73 5.73 0 00-5.723-5.723H5.723A5.73 5.73 0 000 5.836v128.328a5.729 5.729 0 005.723 5.723h128.554a5.73 5.73 0 005.723-5.723V40.997a2.046 2.046 0 00-4.092 0v93.167c0 .9-.731 1.631-1.631 1.631H5.723c-.9 0-1.631-.731-1.631-1.631V21.536h131.816v10.043c0 1.13.916 2.046 2.046 2.046zM4.092 17.444V5.835c0-.9.731-1.631 1.63-1.631h128.555c.9 0 1.631.731 1.631 1.63v11.608H4.092z" fill="#000"/><path d="M105.273 13.553a2.729 2.729 0 100-5.458 2.729 2.729 0 000 5.458zm10.71-.016a2.728 2.728 0 10-.873-5.385 2.728 2.728 0 00.873 5.385zm9.861.016a2.728 2.728 0 100-5.456 2.728 2.728 0 000 5.456zM70 32.56c-18.407 0-33.383 14.975-33.383 33.383A33.28 33.28 0 0045.484 88.6a2.046 2.046 0 003.004-2.778 29.199 29.199 0 01-7.78-19.88c0-16.151 13.14-29.291 29.292-29.291 16.151 0 29.291 13.14 29.291 29.29 0 16.152-13.14 29.292-29.291 29.292a29.29 29.29 0 01-14.493-3.83 2.046 2.046 0 00-2.027 3.554A33.39 33.39 0 0070 99.326c18.407 0 33.383-14.976 33.383-33.383 0-18.408-14.975-33.383-33.383-33.383z" fill="#000"/><path d="M60.661 80.418c1.381 1.335 3.06 2.008 4.967 1.994 1.958-.014 3.899-.82 5.252-2.285 0-.002 17.238-18.672 17.238-18.672a7.102 7.102 0 001.891-5.133 7.102 7.102 0 00-2.293-4.967 7.105 7.105 0 00-5.133-1.89 7.102 7.102 0 00-4.967 2.293L65.337 65.056 62.1 61.928c-2.834-2.738-7.368-2.66-10.107.173-2.738 2.833-2.661 7.367.172 10.106l8.496 8.212zm-5.726-15.474a3.047 3.047 0 012.198-.93c.765 0 1.531.284 2.123.857L64 69.454a2.045 2.045 0 002.925-.083l13.698-14.837a3.035 3.035 0 012.124-.98 3.027 3.027 0 012.194.808c.6.553.948 1.307.98 2.123a3.033 3.033 0 01-.808 2.194l-17.24 18.672a3.052 3.052 0 01-4.367.124l-8.496-8.21a3.059 3.059 0 01-.074-4.32zm31.759 40.229c-1.13 0-2.046.916-2.046 2.046v15.506a2.046 2.046 0 104.092 0v-3.761l5.425 5.233c.397.384.909.574 1.42.574a2.046 2.046 0 001.42-3.518l-6.83-6.591 6.245-5.741a2.046 2.046 0 10-2.77-3.013l-4.91 4.514v-3.203c0-1.13-.916-2.046-2.046-2.046zm-43.186 19.598c1.13 0 2.046-.916 2.046-2.045v-15.507a2.046 2.046 0 00-4.092 0v5.442h-6.638v-5.442a2.046 2.046 0 00-4.092 0v15.507a2.046 2.046 0 004.092 0v-5.973h6.638v5.973c0 1.129.916 2.045 2.046 2.045zm15.365-15.364a2.046 2.046 0 100-4.092H52.4c-1.13 0-2.046.916-2.046 2.046v15.364c0 1.13.916 2.046 2.046 2.046h6.474a2.046 2.046 0 100-4.091h-4.428v-3.591h3.95a2.046 2.046 0 100-4.091h-3.95v-3.591h4.428zm51.02 0a2.045 2.045 0 000-4.092h-6.474c-1.13 0-2.046.916-2.046 2.046v15.364c0 1.13.916 2.046 2.046 2.046h6.474a2.045 2.045 0 000-4.091h-4.428v-3.591h3.95a2.045 2.045 0 100-4.091h-3.95v-3.591h4.428zm7.833-3.775a2.045 2.045 0 00-2.046 2.05v14.799c0 .133.014.262.038.388a2.045 2.045 0 002.039 1.902h.008c.129 0 3.168-.012 4.383-.033 4.614-.081 7.963-4.091 7.963-9.536 0-5.724-3.265-9.57-8.123-9.57h-4.262zm8.293 9.57c0 3.713-1.98 5.41-3.942 5.444-.527.01-1.434.017-2.281.022-.006-1.768-.013-4.23-.013-5.483 0-1.05-.004-3.62-.007-5.461h2.212c3.74 0 4.031 4.193 4.031 5.478zm-106.33-5.937c1.143 0 2.246.337 3.189.974a2.047 2.047 0 002.29-3.391 9.75 9.75 0 00-5.48-1.675c-5.402 0-9.799 4.396-9.799 9.799s4.397 9.799 9.8 9.799c2.162 0 4.104-.712 5.615-2.057a8.32 8.32 0 00.837-.863 2.047 2.047 0 00-3.136-2.629 4.219 4.219 0 01-.422.436c-.761.677-1.735 1.021-2.894 1.021a5.713 5.713 0 01-5.708-5.707 5.713 5.713 0 015.708-5.707zm54.529 0c1.144 0 2.247.337 3.19.974a2.047 2.047 0 002.29-3.391 9.756 9.756 0 00-5.48-1.674c-5.403 0-9.799 4.395-9.799 9.798 0 5.404 4.396 9.799 9.799 9.799 2.162 0 4.105-.711 5.616-2.057a8.31 8.31 0 00.836-.863 2.046 2.046 0 00-3.136-2.629 4.14 4.14 0 01-.422.436c-.76.678-1.734 1.021-2.894 1.021a5.713 5.713 0 01-5.707-5.707 5.713 5.713 0 015.707-5.707z" fill="#000"/></svg>