<svg width="140" height="140" fill="none" xmlns="http://www.w3.org/2000/svg"><path d="M22.882 86.779h.001l-.001-.007h18.51l.001.007h6.878V46.484h-25.39c-11.126 0-20.147 9.02-20.147 20.147 0 11.128 9.02 20.148 20.148 20.148z" fill="#FF9A02"/><path d="M48.27 86.796s40.262-2.285 59.205 30.303c1.017 1.751 3.695 1.029 3.695-.996V17.159c0-2.025-2.678-2.747-3.695-.996C88.533 48.75 48.271 46.466 48.271 46.466v40.33z" fill="#fff"/><path d="M112.258 78.167c6.094 0 11.033-4.94 11.033-11.033v-1.005c0-6.094-4.939-11.033-11.033-11.033h-1.088v23.07h1.088zm-89.376 8.605l.001.007 8.058 33.133a6.438 6.438 0 006.256 4.917h5.258c4.171 0 7.241-3.906 6.255-7.96l-7.317-30.09-.002-.006h-18.51z" fill="#FF9A02"/><path d="M48.426 43.737a2.72 2.72 0 00-.429.013H22.882C10.265 43.75 0 54.014 0 66.63c0 11.885 9.107 21.68 20.709 22.777l7.575 31.151a9.15 9.15 0 008.913 7.005h5.258a9.117 9.117 0 007.211-3.505 9.119 9.119 0 001.701-7.835l-6.495-26.71h3.12c.143.014.286.021.431.013.098-.005 9.899-.495 21.777 2.882 15.707 4.466 27.453 13.236 34.911 26.065.867 1.493 2.401 2.353 4.046 2.353.415 0 .838-.055 1.259-.169a4.665 4.665 0 003.489-4.554V80.799c6.818-.816 12.121-6.631 12.121-13.665v-1.005c0-7.034-5.303-12.849-12.121-13.666V17.16a4.666 4.666 0 00-3.489-4.555 4.667 4.667 0 00-5.305 2.184c-7.457 12.83-19.203 21.6-34.911 26.066-11.878 3.377-21.68 2.888-21.774 2.882zm-3.06 76.942a3.68 3.68 0 01-2.911 1.415h-5.258a3.694 3.694 0 01-3.6-2.828l-7.235-29.753h12.882l1.931 7.942h-1.307a2.734 2.734 0 100 5.469h2.637l1.354 5.57h-.857a2.734 2.734 0 100 5.469h2.187l.864 3.552a3.68 3.68 0 01-.687 3.164zm-3.824-36.635c-.05-.002-.1-.006-.15-.006h-18.51c-.026 0-.052.004-.078.005C13.24 84 5.47 76.207 5.47 66.63c0-9.601 7.811-17.413 17.413-17.413h22.654V72.44H28.543a2.734 2.734 0 100 5.469h16.993v6.134h-3.994zm79.015-17.915v1.005c0 4.012-2.862 7.369-6.653 8.134V57.994c3.791.766 6.653 4.122 6.653 8.135zm-69.552-16.9c3.975-.064 11.636-.563 20.506-3.062 16.02-4.513 28.73-13.592 36.925-26.336v93.601c-8.195-12.744-20.905-21.824-36.925-26.337-8.87-2.498-16.532-2.997-20.506-3.062V49.23zm85.567-6.446a2.735 2.735 0 00-3.683-4.044l-7.886 7.183a2.734 2.734 0 103.682 4.044l7.887-7.183zm-1.842 52.453a2.735 2.735 0 001.842-4.756l-7.887-7.183a2.735 2.735 0 00-3.682 4.044l7.886 7.182a2.727 2.727 0 001.841.713zm2.536-31.339h-6.056a2.735 2.735 0 100 5.469h6.056a2.734 2.734 0 000-5.469z" fill="#000"/><path d="M19.802 74.13a2.699 2.699 0 00-1.009-1.228 2.767 2.767 0 00-.981-.407 2.706 2.706 0 00-1.58.156 2.792 2.792 0 00-.89.59 2.699 2.699 0 00-.59.889 2.753 2.753 0 00-.21 1.044 2.739 2.739 0 00.462 1.518c.098.15.213.29.339.416a2.8 2.8 0 00.415.341 2.806 2.806 0 00.985.408 2.713 2.713 0 002.05-.407c.15-.102.29-.217.419-.342a2.777 2.777 0 00.746-1.398 2.742 2.742 0 00-.156-1.58z" fill="#000"/></svg>