<svg width="140" height="140" fill="none" xmlns="http://www.w3.org/2000/svg"><path d="M87.442 82.168H39.434c-7.799 0-14.12 6.322-14.12 14.12v17.721H36.8v13.194h52.527v-13.194h12.234v-17.72c0-7.799-6.322-14.12-14.12-14.12z" fill="#FF9A02"/><path d="M25.313 114.009h11.488v13.194H25.313v-13.194z" fill="#fff"/><path d="M36.8 128.297H25.314c-.604 0-1.093-.49-1.093-1.094v-13.194c0-.604.49-1.094 1.093-1.094h11.488c.604 0 1.094.49 1.094 1.094v13.194c0 .604-.49 1.094-1.094 1.094zm-10.393-2.188h9.3v-11.007h-9.3v11.007z" fill="#000"/><path d="M89.328 114.009h12.234v13.194H89.328v-13.194z" fill="#fff"/><path d="M101.562 128.297H89.328c-.604 0-1.094-.49-1.094-1.094v-13.194c0-.604.49-1.094 1.094-1.094h12.234c.604 0 1.094.49 1.094 1.094v13.194c0 .604-.49 1.094-1.094 1.094zm-11.14-2.188h10.046v-11.007H90.422v11.007z" fill="#000"/><path d="M89.328 115.102c-.604 0-1.094-.49-1.094-1.093v-9.323a1.094 1.094 0 012.188 0v9.323c0 .603-.49 1.093-1.094 1.093z" fill="#000"/><path d="M49.318 69.885v13.414c0 7.79 6.316 14.105 14.106 14.105 7.786 0 14.105-6.31 14.105-14.106V69.885H49.32z" fill="#fff"/><path d="M89.328 128.297H36.801c-.604 0-1.094-.49-1.094-1.094v-12.101H25.313c-.604 0-1.093-.49-1.093-1.093v-17.72c0-8.39 6.825-15.214 15.214-15.214h8.791v-11.19c0-.604.49-1.094 1.094-1.094h28.21c.604 0 1.094.49 1.094 1.094v11.19h8.819c8.39 0 15.214 6.824 15.214 15.213v17.72c0 .604-.49 1.094-1.094 1.094h-11.14v12.101c0 .604-.49 1.094-1.094 1.094zm-51.433-2.188h50.339v-12.1c0-.604.49-1.094 1.094-1.094h11.14V96.288c0-7.182-5.844-13.026-13.026-13.026h-9.913c-.604 0-1.094-.49-1.094-1.094v-11.19H50.413v11.19c0 .604-.49 1.094-1.094 1.094h-9.886c-7.183 0-13.027 5.844-13.027 13.026v16.626h10.395c.604 0 1.094.49 1.094 1.094v12.101z" fill="#000"/><path d="M63.438 72.257c-18.268 0-33.077-14.809-33.077-33.077V25.326a8.314 8.314 0 018.314-8.314h57.84V39.18c0 18.268-14.81 33.077-33.078 33.077z" fill="#FF9A02"/><path d="M63.438 73.35c-18.843 0-34.17-15.328-34.17-34.17V25.326c0-5.187 4.22-9.408 9.407-9.408h57.84c.603 0 1.093.49 1.093 1.094V39.18c0 18.842-15.329 34.17-34.17 34.17zM38.674 18.106c-3.981 0-7.22 3.24-7.22 7.22V39.18c0 17.635 14.347 31.983 31.983 31.983 17.635 0 31.982-14.348 31.982-31.983V18.105H38.675z" fill="#000"/><path d="M91.61 41.416v-2.638c0-15.418-12.613-27.918-28.172-27.918-15.56 0-28.172 12.5-28.172 27.918v2.638c-4.892-.1-8.773 3.797-8.773 8.508 0 5.03 4.391 9.009 9.517 8.467 2.907 12.352 14.08 21.554 27.427 21.554 13.349 0 24.52-9.203 27.427-21.554 5.12.541 9.517-3.43 9.517-8.467.001-4.712-3.883-8.607-8.772-8.508z" fill="#fff"/><path d="M63.438 81.04c-13.362 0-24.856-8.798-28.269-21.507a9.77 9.77 0 01-6.59-2.488 9.596 9.596 0 01-3.18-7.12 9.51 9.51 0 012.882-6.841 9.617 9.617 0 015.891-2.722v-1.584c0-15.997 13.128-29.012 29.266-29.012 16.137 0 29.265 13.015 29.265 29.012v1.584a9.611 9.611 0 015.89 2.722 9.508 9.508 0 012.883 6.84 9.596 9.596 0 01-3.18 7.12 9.75 9.75 0 01-6.515 2.49h-.076C88.293 72.241 76.8 81.038 63.439 81.038zM36.01 57.296c.502 0 .946.345 1.063.844 2.87 12.194 13.712 20.71 26.364 20.71 12.651 0 23.492-8.516 26.362-20.71a1.1 1.1 0 011.18-.838 7.563 7.563 0 005.852-1.885 7.403 7.403 0 002.456-5.493c0-1.997-.79-3.872-2.225-5.278a7.46 7.46 0 00-5.432-2.137 1.152 1.152 0 01-.787-.312 1.097 1.097 0 01-.33-.782V38.78c0-14.79-12.146-26.824-27.077-26.824-14.93 0-27.078 12.033-27.078 26.824v2.637c0 .294-.118.576-.328.782-.21.206-.492.312-.788.312-2.065-.042-3.983.718-5.432 2.136a7.338 7.338 0 00-2.225 5.279c0 2.086.895 4.089 2.457 5.494a7.566 7.566 0 005.851 1.884 1.16 1.16 0 01.117-.006z" fill="#000"/><path d="M96.514 36.001H52.316c-9.417 0-17.05-7.634-17.05-17.05s7.634-17.05 17.05-17.05h28.93c8.432 0 15.268 6.836 15.268 15.269V36z" fill="#FF9A02"/><path d="M96.514 37.095H52.316c-10.005 0-18.144-8.14-18.144-18.144 0-10.005 8.14-18.144 18.144-18.144h28.93c9.022 0 16.362 7.34 16.362 16.362v18.833c0 .604-.49 1.093-1.094 1.093zm-44.198-34.1c-8.798 0-15.956 7.158-15.956 15.956 0 8.799 7.158 15.957 15.956 15.957h43.105V17.17c0-7.816-6.359-14.174-14.175-14.174h-28.93zM36.8 115.102c-.603 0-1.093-.49-1.093-1.093v-9.323a1.094 1.094 0 012.188 0v9.323c0 .603-.49 1.093-1.094 1.093z" fill="#000"/><path d="M71.449 72.34c.733.1 1.484.104 2.201-.073a6.034 6.034 0 000-11.71c-.717-.178-1.468-.173-2.2-.073a59.254 59.254 0 01-16.038 0c-.732-.1-1.483-.105-2.2.072a6.034 6.034 0 000 11.711c.717.177 1.468.173 2.2.073h.001a59.238 59.238 0 0116.036 0z" fill="#FF9A02"/><path d="M78.99 56.655c-.21 0-.422-.06-.61-.186l-7.562-5.08a1.093 1.093 0 010-1.815l7.563-5.079a1.093 1.093 0 111.22 1.816l-6.212 4.171 6.211 4.171a1.093 1.093 0 01-.61 2.002z" fill="#000"/><path d="M82.475 51.576H71.427a1.094 1.094 0 010-2.188h11.048a1.094 1.094 0 010 2.188zm-34.617 5.079a1.093 1.093 0 01-.611-2.002l6.211-4.171-6.211-4.171a1.093 1.093 0 111.22-1.816l7.563 5.08a1.093 1.093 0 010 1.815l-7.564 5.079a1.086 1.086 0 01-.608.186z" fill="#000"/><path d="M55.42 51.576H44.373a1.094 1.094 0 010-2.188H55.42a1.094 1.094 0 010 2.188z" fill="#000"/><path d="M121.563 51.989h-14.312a1.506 1.506 0 110-3.014h14.312a1.506 1.506 0 110 3.014zm-17.977-13.063a1.506 1.506 0 01-.302-2.109l10.12-13.493a1.507 1.507 0 012.411 1.807l-10.12 13.494a1.507 1.507 0 01-2.109.301zm9.818 38.714l-10.12-13.493a1.507 1.507 0 012.411-1.807l10.119 13.493a1.506 1.506 0 11-2.41 1.807zM19.623 51.989H5.313a1.507 1.507 0 010-3.014h14.311a1.507 1.507 0 010 3.014zm-8.261 25.953c-.666-.5-.8-1.444-.302-2.109L21.18 62.34a1.506 1.506 0 112.41 1.807L13.47 77.64a1.505 1.505 0 01-2.108.302zm9.818-39.317L11.06 25.13a1.506 1.506 0 112.41-1.807l10.12 13.493a1.506 1.506 0 01-2.41 1.808z" fill="#FF9A02"/><path d="M111.016 138.359c15.101 0 27.343-12.242 27.343-27.343 0-15.102-12.242-27.344-27.343-27.344-15.102 0-27.344 12.242-27.344 27.344 0 15.101 12.242 27.343 27.344 27.343z" fill="#FF002E"/><path d="M116.429 111.016l11.043-11.043a3.826 3.826 0 000-5.413 3.826 3.826 0 00-5.414 0l-11.042 11.042L99.973 94.56a3.826 3.826 0 00-5.413 0 3.832 3.832 0 000 5.413l11.042 11.043-11.042 11.042a3.833 3.833 0 000 5.414 3.826 3.826 0 005.413 0l11.043-11.043 11.042 11.043a3.827 3.827 0 005.414 0 3.827 3.827 0 000-5.414l-11.043-11.042z" fill="#fff"/><path d="M111.438 139.453C95.757 139.453 83 126.696 83 111.016c0-15.68 12.757-28.438 28.438-28.438 15.68 0 28.437 12.757 28.437 28.438 0 15.68-12.757 28.437-28.437 28.437zm0-54.687c-14.475 0-26.25 11.775-26.25 26.25 0 14.474 11.775 26.25 26.25 26.25 14.474 0 26.25-11.776 26.25-26.25 0-14.475-11.776-26.25-26.25-26.25z" fill="#000"/></svg>